<?xml version="1.0"?>
<svg width="900" height="460" xmlns="http://www.w3.org/2000/svg" xmlns:svg="http://www.w3.org/2000/svg">
 <defs>
  <marker id="arrow" markerHeight="6" markerWidth="6" orient="auto-start-reverse" refX="8" refY="5" viewBox="0 0 10 10">
   <path d="m2,1l6,4l-6,4" fill="none" id="svg_1" stroke="context-stroke" stroke-linecap="round" stroke-linejoin="round" stroke-width="1.5"/>
  </marker>
  <mask id="imagine-text-gaps-qw6qne" maskUnits="userSpaceOnUse">
   <rect fill="white" height="460" id="svg_2" style="--darkreader-inline-fill: var(--darkreader-text-ffffff, #e8e6e3);" width="900" x="0" y="0"/>
   <rect fill="black" height="19.32" id="svg_3" rx="2" style="--darkreader-inline-fill: var(--darkreader-text-000000, #e8e6e3);" width="39.08" x="61.01" y="13.74"/>
   <rect fill="black" height="19.32" id="svg_4" rx="2" style="--darkreader-inline-fill: var(--darkreader-text-000000, #e8e6e3);" width="56.95" x="272.18" y="13.74"/>
   <rect fill="black" height="19.32" id="svg_5" rx="2" style="--darkreader-inline-fill: var(--darkreader-text-000000, #e8e6e3);" width="71.22" x="465.07" y="13.74"/>
   <rect fill="black" height="19.32" id="svg_6" rx="2" style="--darkreader-inline-fill: var(--darkreader-text-000000, #e8e6e3);" width="57.96" x="681.67" y="13.74"/>
   <rect fill="black" height="19.32" id="svg_7" rx="2" style="--darkreader-inline-fill: var(--darkreader-text-000000, #e8e6e3);" width="38.84" x="31.13" y="307.74"/>
   <rect fill="black" height="19.32" id="svg_8" rx="2" style="--darkreader-inline-fill: var(--darkreader-text-000000, #e8e6e3);" width="40.06" x="71.5" y="291.74"/>
   <rect fill="black" height="19.32" id="svg_9" rx="2" style="--darkreader-inline-fill: var(--darkreader-text-000000, #e8e6e3);" width="34.19" x="74.78" y="305.74"/>
   <rect fill="black" height="19.32" id="svg_10" rx="2" style="--darkreader-inline-fill: var(--darkreader-text-000000, #e8e6e3);" width="105.81" x="367.08" y="57.74"/>
   <rect fill="black" height="22.39" id="svg_11" rx="2" style="--darkreader-inline-fill: var(--darkreader-text-000000, #e8e6e3);" width="67.42" x="390.13" y="202.81"/>
   <rect fill="black" height="22.39" id="svg_12" rx="2" style="--darkreader-inline-fill: var(--darkreader-text-000000, #e8e6e3);" width="35.86" x="405.8" y="220.81"/>
   <rect fill="black" height="19.32" id="svg_13" rx="2" style="--darkreader-inline-fill: var(--darkreader-text-000000, #e8e6e3);" width="66.99" x="390.89" y="314.34"/>
   <rect fill="black" height="19.32" id="svg_14" rx="2" style="--darkreader-inline-fill: var(--darkreader-text-000000, #e8e6e3);" width="76.75" x="386.29" y="341.74"/>
   <rect fill="black" height="19.32" id="svg_15" rx="2" style="--darkreader-inline-fill: var(--darkreader-text-000000, #e8e6e3);" width="69.21" x="389.53" y="355.74"/>
   <rect fill="black" height="19.32" id="svg_16" rx="2" style="--darkreader-inline-fill: var(--darkreader-text-000000, #e8e6e3);" width="91.78" x="492.47" y="177.74"/>
   <rect fill="black" height="19.32" id="svg_17" rx="2" style="--darkreader-inline-fill: var(--darkreader-text-000000, #e8e6e3);" width="50.32" x="823.21" y="307.74"/>
   <rect fill="black" height="19.32" id="svg_18" rx="2" style="--darkreader-inline-fill: var(--darkreader-text-000000, #e8e6e3);" width="56.27" x="819.47" y="321.74"/>
   <rect fill="black" height="19.32" id="svg_19" rx="2" style="--darkreader-inline-fill: var(--darkreader-text-000000, #e8e6e3);" width="126.34" x="784.44" y="355.74"/>
   <rect fill="black" height="19.32" id="svg_20" rx="2" style="--darkreader-inline-fill: var(--darkreader-text-000000, #e8e6e3);" width="127.2" x="784.38" y="369.74"/>
   <rect fill="black" height="19.32" id="svg_21" rx="2" style="--darkreader-inline-fill: var(--darkreader-text-000000, #e8e6e3);" width="124.73" x="785.74" y="383.74"/>
   <rect fill="black" height="19.32" id="svg_22" rx="2" style="--darkreader-inline-fill: var(--darkreader-text-000000, #e8e6e3);" width="113.54" x="40.98" y="419.74"/>
   <rect fill="black" height="19.32" id="svg_23" rx="2" style="--darkreader-inline-fill: var(--darkreader-text-000000, #e8e6e3);" width="67.73" x="204" y="419.74"/>
   <rect fill="black" height="19.32" id="svg_24" rx="2" style="--darkreader-inline-fill: var(--darkreader-text-000000, #e8e6e3);" width="125.01" x="314" y="419.74"/>
   <rect fill="black" height="19.32" id="svg_25" rx="2" style="--darkreader-inline-fill: var(--darkreader-text-000000, #e8e6e3);" width="105.81" x="482.98" y="419.74"/>
   <rect fill="black" height="19.32" id="svg_26" rx="2" style="--darkreader-inline-fill: var(--darkreader-text-000000, #e8e6e3);" width="99.37" x="634" y="419.74"/>
   <rect fill="black" height="19.32" id="svg_27" rx="2" style="--darkreader-inline-fill: var(--darkreader-text-000000, #e8e6e3);" width="121.71" x="782.29" y="419.74"/>
  </mask>
 </defs>
 <!-- stage labels -->
 <!-- input slab -->
 <!-- radial map slab -->
 <!-- encoder slabs -->
 <!-- skip connections -->
 <!-- bottleneck attention block -->
 <!-- μ latent -->
 <!-- NO planet head — crossed out annotation -->
 <!-- decoder slabs -->
 <!-- output slab — blurred -->
 <!-- blurred target annotation -->
 <!-- loss arrow pointing at output -->
 <!-- legend -->
 <g class="layer">
  <title>Layer 1</title>
  <text dominant-baseline="auto" fill="rgb(194, 192, 182)" font-family="&quot;Anthropic Sans&quot;, -apple-system, BlinkMacSystemFont, &quot;Segoe UI&quot;, sans-serif" font-size="12px" font-weight="400" id="svg_28" stroke-width="1px" text-anchor="middle" x="80" y="28">Input</text>
  <text dominant-baseline="auto" fill="rgb(194, 192, 182)" font-family="&quot;Anthropic Sans&quot;, -apple-system, BlinkMacSystemFont, &quot;Segoe UI&quot;, sans-serif" font-size="12px" font-weight="400" id="svg_29" stroke-width="1px" style="--darkreader-inline-fill: var(--darkreader-text-c2c0b6, #beb8b0);" text-anchor="middle" transform="matrix(1 0 0 1 -51 -3)" x="300" y="28">Encoder</text>
  <line fill="none" id="svg_30" stroke="rgb(194, 192, 182)" stroke-width="0.8px" transform="matrix(1 0 0 1 -45 3)" x1="170" x2="170" y1="34" y2="41"/>
  <line fill="none" id="svg_31" stroke="rgb(194, 192, 182)" stroke-width="0.8px" style="--darkreader-inline-stroke: var(--darkreader-border-c2c0b6, #43484b);" transform="matrix(1 0 0 1 -45 3)" x1="170" x2="430" y1="34" y2="34"/>
  <line fill="none" id="svg_32" stroke="rgb(194, 192, 182)" stroke-width="0.8px" transform="matrix(1 0 0 1 -45 3)" x1="430" x2="430" y1="34" y2="41"/>
  <text dominant-baseline="auto" fill="rgb(194, 192, 182)" font-family="&quot;Anthropic Sans&quot;, -apple-system, BlinkMacSystemFont, &quot;Segoe UI&quot;, sans-serif" font-size="12px" font-weight="400" id="svg_33" stroke-width="1px" text-anchor="middle" transform="matrix(1 0 0 1 -31 2)" x="500" y="28">Bottleneck</text>
  <line fill="none" id="svg_34" stroke="rgb(194, 192, 182)" stroke-width="0.8px" transform="matrix(1 0 0 1 -31 2)" x1="438" x2="438" y1="34" y2="41"/>
  <line fill="none" id="svg_35" stroke="rgb(194, 192, 182)" stroke-width="0.8px" style="--darkreader-inline-stroke: var(--darkreader-border-c2c0b6, #43484b);" transform="matrix(1 0 0 1 -31 2)" x1="438" x2="562" y1="34" y2="34"/>
  <line fill="none" id="svg_36" stroke="rgb(194, 192, 182)" stroke-width="0.8px" style="--darkreader-inline-stroke: var(--darkreader-border-c2c0b6, #43484b);" transform="matrix(1 0 0 1 -31 2)" x1="562" x2="562" y1="34" y2="41"/>
  <text dominant-baseline="auto" fill="rgb(194, 192, 182)" font-family="&quot;Anthropic Sans&quot;, -apple-system, BlinkMacSystemFont, &quot;Segoe UI&quot;, sans-serif" font-size="12px" font-weight="400" id="svg_37" stroke-width="1px" text-anchor="middle" x="710" y="28">Decoder</text>
  <line fill="none" id="svg_38" stroke="rgb(194, 192, 182)" stroke-width="0.8px" x1="570" x2="570" y1="34" y2="41"/>
  <line fill="none" id="svg_39" stroke="rgb(194, 192, 182)" stroke-width="0.8px" x1="570" x2="850" y1="34" y2="34"/>
  <line fill="none" id="svg_40" stroke="rgb(194, 192, 182)" stroke-width="0.8px" x1="850" x2="850" y1="34" y2="41"/>
  <rect fill="rgb(76, 155, 232)" height="150" id="svg_41" opacity="0.85" rx="2" stroke-width="1px" width="34" x="28" y="148"/>
  <polygon fill="rgb(107, 179, 240)" id="svg_42" opacity="0.9" points="28,148 62,148 70,140 36,140" stroke-width="1px"/>
  <polygon fill="rgb(42, 111, 168)" id="svg_43" opacity="0.9" points="62,148 70,140 70,298 62,306" stroke-width="1px"/>
  <text dominant-baseline="auto" fill="rgb(194, 192, 182)" font-family="&quot;Anthropic Sans&quot;, -apple-system, BlinkMacSystemFont, &quot;Segoe UI&quot;, sans-serif" font-size="12px" font-weight="400" id="svg_44" stroke-width="1px" text-anchor="middle" x="50" y="322">input</text>
  <rect fill="rgb(29, 158, 117)" height="114" id="svg_45" opacity="0.85" rx="2" stroke-width="1px" width="18" x="78" y="166"/>
  <polygon fill="rgb(61, 184, 138)" id="svg_46" opacity="0.9" points="78,166 96,166 104,158 86,158" stroke-width="1px"/>
  <polygon fill="rgb(13, 110, 81)" id="svg_47" opacity="0.85" points="96,166 104,158 104,280 96,288" stroke-width="1px"/>
  <text dominant-baseline="auto" fill="rgb(194, 192, 182)" font-family="&quot;Anthropic Sans&quot;, -apple-system, BlinkMacSystemFont, &quot;Segoe UI&quot;, sans-serif" font-size="12px" font-weight="400" id="svg_48" stroke-width="1px" text-anchor="middle" x="91" y="306">radial</text>
  <text dominant-baseline="auto" fill="rgb(194, 192, 182)" font-family="&quot;Anthropic Sans&quot;, -apple-system, BlinkMacSystemFont, &quot;Segoe UI&quot;, sans-serif" font-size="12px" font-weight="400" id="svg_49" stroke-width="1px" text-anchor="middle" x="91" y="320">map</text>
  <line fill="none" id="svg_50" marker-end="url(#arrow)" stroke="rgb(156, 154, 146)" stroke-width="1.5px" x1="114" x2="134" y1="222" y2="222"/>
  <rect fill="rgb(127, 119, 221)" height="172" id="svg_51" opacity="0.85" rx="2" stroke-width="1px" width="26" x="140" y="136"/>
  <polygon fill="rgb(158, 152, 232)" id="svg_52" opacity="0.9" points="140,136 166,136 174,128 148,128" stroke-width="1px"/>
  <polygon fill="rgb(74, 67, 168)" id="svg_53" opacity="0.9" points="166,136 174,128 174,308 166,316" stroke-width="1px"/>
  <rect fill="rgb(127, 119, 221)" height="136" id="svg_54" opacity="0.85" rx="2" stroke-width="1px" width="24" x="192" y="154"/>
  <polygon fill="rgb(158, 152, 232)" id="svg_55" opacity="0.9" points="192,154 216,154 224,146 200,146" stroke-width="1px"/>
  <polygon fill="rgb(74, 67, 168)" id="svg_56" opacity="0.9" points="216,154 224,146 224,290 216,298" stroke-width="1px"/>
  <rect fill="rgb(127, 119, 221)" height="100" id="svg_57" opacity="0.85" rx="2" stroke-width="1px" width="22" x="240" y="172"/>
  <polygon fill="rgb(158, 152, 232)" id="svg_58" opacity="0.9" points="240,172 262,172 270,164 248,164" stroke-width="1px"/>
  <polygon fill="rgb(74, 67, 168)" id="svg_59" opacity="0.9" points="262,172 270,164 270,272 262,280" stroke-width="1px"/>
  <rect fill="rgb(127, 119, 221)" height="68" id="svg_60" opacity="0.85" rx="2" stroke-width="1px" width="20" x="286" y="188"/>
  <polygon fill="rgb(158, 152, 232)" id="svg_61" opacity="0.9" points="286,188 306,188 314,180 294,180" stroke-width="1px"/>
  <polygon fill="rgb(74, 67, 168)" id="svg_62" opacity="0.9" points="306,188 314,180 314,256 306,264" stroke-width="1px"/>
  <rect fill="rgb(127, 119, 221)" height="46" id="svg_63" opacity="0.85" rx="2" stroke-width="1px" width="18" x="330" y="200"/>
  <polygon fill="rgb(158, 152, 232)" id="svg_64" opacity="0.9" points="330,200 348,200 356,192 338,192" stroke-width="1px"/>
  <polygon fill="rgb(74, 67, 168)" id="svg_65" opacity="0.9" points="348,200 356,192 356,246 348,254" stroke-width="1px"/>
  <path d="m153,136q0,-60 547,-60q0,66 0,80" fill="none" id="svg_66" marker-end="url(#arrow)" stroke="rgb(83, 74, 183)" stroke-dasharray="5px, 3px" stroke-width="1px" style="--darkreader-inline-stroke: var(--darkreader-text-534ab7, #5c7dbe);" transform="matrix(1.14381 0 0 1 -21.8339 0)"/>
  <path d="m204,154q0,-66 474,-66q0,60 0,80" fill="none" id="svg_67" marker-end="url(#arrow)" stroke="rgb(83, 74, 183)" stroke-dasharray="5px, 3px" stroke-width="1px" transform="matrix(1.10878 0 0 1 -21.9737 0)"/>
  <text dominant-baseline="auto" fill="rgb(194, 192, 182)" font-family="&quot;Anthropic Sans&quot;, -apple-system, BlinkMacSystemFont, &quot;Segoe UI&quot;, sans-serif" font-size="12px" font-weight="400" id="svg_68" stroke-width="1px" text-anchor="middle" x="420" y="72">skip connections</text>
  <line fill="none" id="svg_69" marker-end="url(#arrow)" stroke="rgb(156, 154, 146)" stroke-width="1.5px" x1="364" x2="390" y1="222" y2="222"/>
  <rect fill="rgb(239, 159, 39)" height="64" id="svg_70" opacity="0.9" rx="4" stroke-width="1px" width="60" x="394" y="190"/>
  <polygon fill="rgb(245, 184, 74)" id="svg_71" opacity="0.9" points="394,190 454,190 464,180 404,180" stroke-width="1px"/>
  <polygon fill="rgb(168, 104, 0)" id="svg_72" opacity="0.85" points="454,190 464,180 464,254 454,264" stroke-width="1px"/>
  <text dominant-baseline="central" fill="rgb(250, 249, 245)" font-family="&quot;Anthropic Sans&quot;, -apple-system, BlinkMacSystemFont, &quot;Segoe UI&quot;, sans-serif" font-size="14px" font-weight="500" id="svg_73" stroke-width="1px" text-anchor="middle" x="424" y="214">self-attn</text>
  <text dominant-baseline="central" fill="rgb(250, 249, 245)" font-family="&quot;Anthropic Sans&quot;, -apple-system, BlinkMacSystemFont, &quot;Segoe UI&quot;, sans-serif" font-size="14px" font-weight="500" id="svg_74" stroke-width="1px" text-anchor="middle" x="424" y="232">4×4</text>
  <line fill="none" id="svg_75" marker-end="url(#arrow)" stroke="rgb(156, 154, 146)" stroke-width="1.5px" x1="424" x2="424" y1="264" y2="306"/>
  <g fill="rgb(0, 0, 0)" font-family="&quot;Anthropic Sans&quot;, -apple-system, BlinkMacSystemFont, &quot;Segoe UI&quot;, sans-serif" font-size="16px" font-weight="400" id="svg_76" stroke-width="1px" text-anchor="start">
   <rect fill="rgb(60, 52, 137)" height="30" id="svg_77" rx="4" stroke="rgb(175, 169, 236)" stroke-width="0.5px" width="60" x="394" y="308"/>
   <text dominant-baseline="central" fill="rgb(175, 169, 236)" font-family="&quot;Anthropic Sans&quot;, -apple-system, BlinkMacSystemFont, &quot;Segoe UI&quot;, sans-serif" font-size="12px" font-weight="400" id="svg_78" stroke-width="1px" text-anchor="middle" x="424" y="324">μ · 128-dim</text>
  </g>
  <text dominant-baseline="auto" fill="rgb(194, 192, 182)" font-family="&quot;Anthropic Sans&quot;, -apple-system, BlinkMacSystemFont, &quot;Segoe UI&quot;, sans-serif" font-size="12px" font-weight="400" id="svg_79" stroke-width="1px" text-anchor="middle" x="424" y="356">morphology</text>
  <text dominant-baseline="auto" fill="rgb(194, 192, 182)" font-family="&quot;Anthropic Sans&quot;, -apple-system, BlinkMacSystemFont, &quot;Segoe UI&quot;, sans-serif" font-size="12px" font-weight="400" id="svg_80" stroke-width="1px" text-anchor="middle" x="424" y="370">descriptor</text>
  <text dominant-baseline="auto" fill="rgb(194, 192, 182)" font-family="&quot;Anthropic Sans&quot;, -apple-system, BlinkMacSystemFont, &quot;Segoe UI&quot;, sans-serif" font-size="12px" font-weight="400" id="svg_81" stroke-width="1px" text-anchor="middle" transform="matrix(1 0 0 1 -16 25)" x="538" y="192">no planet head</text>
  <line fill="none" id="svg_82" stroke="rgb(136, 136, 136)" stroke-width="0.8px" transform="matrix(1 0 0 1 -16 25)" x1="490" x2="586" y1="198" y2="198"/>
  <line fill="none" id="svg_83" marker-end="url(#arrow)" stroke="rgb(156, 154, 146)" stroke-width="1.5px" x1="472" x2="578" y1="222" y2="222"/>
  <rect fill="rgb(127, 119, 221)" height="46" id="svg_84" opacity="0.7" rx="2" stroke-width="1px" width="18" x="584" y="200"/>
  <polygon fill="rgb(158, 152, 232)" id="svg_85" opacity="0.8" points="584,200 602,200 610,192 592,192" stroke-width="1px"/>
  <polygon fill="rgb(74, 67, 168)" id="svg_86" opacity="0.8" points="602,200 610,192 610,246 602,254" stroke-width="1px"/>
  <rect fill="rgb(127, 119, 221)" height="68" id="svg_87" opacity="0.7" rx="2" stroke-width="1px" width="20" x="624" y="188"/>
  <polygon fill="rgb(158, 152, 232)" id="svg_88" opacity="0.8" points="624,188 644,188 652,180 632,180" stroke-width="1px"/>
  <polygon fill="rgb(74, 67, 168)" id="svg_89" opacity="0.8" points="644,188 652,180 652,256 644,264" stroke-width="1px"/>
  <rect fill="rgb(127, 119, 221)" height="100" id="svg_90" opacity="0.7" rx="2" stroke-width="1px" width="22" x="668" y="172"/>
  <polygon fill="rgb(158, 152, 232)" id="svg_91" opacity="0.8" points="668,172 690,172 698,164 676,164" stroke-width="1px"/>
  <polygon fill="rgb(74, 67, 168)" id="svg_92" opacity="0.8" points="690,172 698,164 698,272 690,280" stroke-width="1px"/>
  <rect fill="rgb(127, 119, 221)" height="136" id="svg_93" opacity="0.7" rx="2" stroke-width="1px" width="24" x="714" y="154"/>
  <polygon fill="rgb(158, 152, 232)" id="svg_94" opacity="0.8" points="714,154 738,154 746,146 722,146" stroke-width="1px"/>
  <polygon fill="rgb(74, 67, 168)" id="svg_95" opacity="0.8" points="738,154 746,146 746,290 738,298" stroke-width="1px"/>
  <rect fill="rgb(127, 119, 221)" height="172" id="svg_96" opacity="0.7" rx="2" stroke-width="1px" width="26" x="762" y="136"/>
  <polygon fill="rgb(158, 152, 232)" id="svg_97" opacity="0.8" points="762,136 788,136 796,128 770,128" stroke-width="1px"/>
  <polygon fill="rgb(74, 67, 168)" id="svg_98" opacity="0.8" points="788,136 796,128 796,308 788,316" stroke-width="1px"/>
  <line fill="none" id="svg_99" marker-end="url(#arrow)" stroke="rgb(156, 154, 146)" stroke-width="1.5px" x1="804" x2="822" y1="222" y2="222"/>
  <rect fill="rgb(76, 155, 232)" height="150" id="svg_100" opacity="0.6" rx="2" stroke-width="1px" width="34" x="826" y="148"/>
  <polygon fill="rgb(107, 179, 240)" id="svg_101" opacity="0.7" points="826,148 860,148 868,140 834,140" stroke-width="1px"/>
  <polygon fill="rgb(42, 111, 168)" id="svg_102" opacity="0.7" points="860,148 868,140 868,298 860,306" stroke-width="1px"/>
  <text dominant-baseline="auto" fill="rgb(194, 192, 182)" font-family="&quot;Anthropic Sans&quot;, -apple-system, BlinkMacSystemFont, &quot;Segoe UI&quot;, sans-serif" font-size="12px" font-weight="400" id="svg_103" stroke-width="1px" text-anchor="middle" x="848" y="322">blurred</text>
  <text dominant-baseline="auto" fill="rgb(194, 192, 182)" font-family="&quot;Anthropic Sans&quot;, -apple-system, BlinkMacSystemFont, &quot;Segoe UI&quot;, sans-serif" font-size="12px" font-weight="400" id="svg_104" stroke-width="1px" text-anchor="middle" x="848" y="336">target ★</text>
  <text dominant-baseline="auto" fill="rgb(194, 192, 182)" font-family="&quot;Anthropic Sans&quot;, -apple-system, BlinkMacSystemFont, &quot;Segoe UI&quot;, sans-serif" font-size="12px" font-weight="400" id="svg_105" stroke-width="1px" text-anchor="middle" transform="matrix(1 0 0 1 -6 0)" x="848" y="370">gaussian_blur(input)</text>
  <text dominant-baseline="auto" fill="rgb(194, 192, 182)" font-family="&quot;Anthropic Sans&quot;, -apple-system, BlinkMacSystemFont, &quot;Segoe UI&quot;, sans-serif" font-size="12px" font-weight="400" id="svg_106" stroke-width="1px" text-anchor="middle" transform="matrix(1 0 0 1 -6 0)" x="848" y="384">erases planet signals</text>
  <text dominant-baseline="auto" fill="rgb(194, 192, 182)" font-family="&quot;Anthropic Sans&quot;, -apple-system, BlinkMacSystemFont, &quot;Segoe UI&quot;, sans-serif" font-size="12px" font-weight="400" id="svg_107" stroke-width="1px" text-anchor="middle" transform="translate(0 1) matrix(1 0 0 1 0 0) matrix(1 0 0 1 -6 0)" x="848" y="398">clean latent space</text>
  <line fill="none" id="svg_108" mask="url(#imagine-text-gaps-qw6qne)" stroke="rgb(186, 117, 23)" stroke-dasharray="3px, 3px" stroke-width="0.6px" x1="848" x2="848" y1="306" y2="362"/>
  <rect fill="rgb(127, 119, 221)" height="12" id="svg_109" rx="2" stroke-width="1px" width="12" x="28" y="424"/>
  <text dominant-baseline="auto" fill="rgb(194, 192, 182)" font-family="&quot;Anthropic Sans&quot;, -apple-system, BlinkMacSystemFont, &quot;Segoe UI&quot;, sans-serif" font-size="12px" font-weight="400" id="svg_110" stroke-width="1px" text-anchor="start" x="46" y="434">encoder / decoder</text>
  <rect fill="rgb(29, 158, 117)" height="12" id="svg_111" rx="2" stroke-width="1px" width="12" x="190" y="424"/>
  <text dominant-baseline="auto" fill="rgb(194, 192, 182)" font-family="&quot;Anthropic Sans&quot;, -apple-system, BlinkMacSystemFont, &quot;Segoe UI&quot;, sans-serif" font-size="12px" font-weight="400" id="svg_112" stroke-width="1px" text-anchor="start" x="208" y="434">radial map</text>
  <rect fill="rgb(239, 159, 39)" height="12" id="svg_113" rx="2" stroke-width="1px" width="12" x="300" y="424"/>
  <text dominant-baseline="auto" fill="rgb(194, 192, 182)" font-family="&quot;Anthropic Sans&quot;, -apple-system, BlinkMacSystemFont, &quot;Segoe UI&quot;, sans-serif" font-size="12px" font-weight="400" id="svg_114" stroke-width="1px" text-anchor="start" x="318" y="434">bottleneck attention</text>
  <rect fill="rgb(83, 74, 183)" height="12" id="svg_115" rx="2" stroke-width="1px" width="12" x="470" y="424"/>
  <text dominant-baseline="auto" fill="rgb(194, 192, 182)" font-family="&quot;Anthropic Sans&quot;, -apple-system, BlinkMacSystemFont, &quot;Segoe UI&quot;, sans-serif" font-size="12px" font-weight="400" id="svg_116" stroke-width="1px" text-anchor="start" x="488" y="434">skip connections</text>
  <rect fill="rgb(76, 155, 232)" height="12" id="svg_117" opacity="0.6" rx="2" stroke-width="1px" width="12" x="620" y="424"/>
  <text dominant-baseline="auto" fill="rgb(194, 192, 182)" font-family="&quot;Anthropic Sans&quot;, -apple-system, BlinkMacSystemFont, &quot;Segoe UI&quot;, sans-serif" font-size="12px" font-weight="400" id="svg_118" stroke-width="1px" text-anchor="start" x="638" y="434">blurred target ★</text>
  <text dominant-baseline="auto" fill="rgb(194, 192, 182)" font-family="&quot;Anthropic Sans&quot;, -apple-system, BlinkMacSystemFont, &quot;Segoe UI&quot;, sans-serif" font-size="12px" font-weight="400" id="svg_119" stroke-width="1px" text-anchor="start" x="786.29" y="434">★ key design choice</text>
 </g>
</svg>