<?xml version="1.0" encoding="utf-8"?>
<svg width="900" height="480" xmlns="http://www.w3.org/2000/svg">
  <defs>
    <marker id="arrow" markerHeight="6" markerWidth="6" orient="auto-start-reverse" refX="8" refY="5" viewBox="0 0 10 10">
      <path d="m2,1l6,4l-6,4" fill="none" id="svg_1" stroke="context-stroke" stroke-linecap="round" stroke-linejoin="round" stroke-width="1.5"/>
    </marker>
    <mask id="imagine-text-gaps-9i9r26" maskUnits="userSpaceOnUse">
      <rect fill="white" height="480" id="svg_2" style="--darkreader-inline-fill: var(--darkreader-text-ffffff, #e8e6e3);" width="900" x="0" y="0"/>
      <rect fill="black" height="19.32" id="svg_3" rx="2" style="--darkreader-inline-fill: var(--darkreader-text-000000, #e8e6e3);" width="38.84" x="33.13" y="309.74"/>
      <rect fill="black" height="19.32" id="svg_4" rx="2" style="--darkreader-inline-fill: var(--darkreader-text-000000, #e8e6e3);" width="40.06" x="71.5" y="293.74"/>
      <rect fill="black" height="19.32" id="svg_5" rx="2" style="--darkreader-inline-fill: var(--darkreader-text-000000, #e8e6e3);" width="34.19" x="74.78" y="307.74"/>
      <rect fill="black" height="17.28" id="svg_6" rx="2" style="--darkreader-inline-fill: var(--darkreader-text-000000, #e8e6e3);" width="17.19" x="95.83" y="151.78"/>
      <rect fill="black" height="19.32" id="svg_7" rx="2" style="--darkreader-inline-fill: var(--darkreader-text-000000, #e8e6e3);" width="57.24" x="219.51" y="341.74"/>
      <rect fill="black" height="19.32" id="svg_8" rx="2" style="--darkreader-inline-fill: var(--darkreader-text-000000, #e8e6e3);" width="117.57" x="370.81" y="57.74"/>
      <rect fill="black" height="22.39" id="svg_9" rx="2" style="--darkreader-inline-fill: var(--darkreader-text-000000, #e8e6e3);" width="67.42" x="390.13" y="204.81"/>
      <rect fill="black" height="22.39" id="svg_10" rx="2" style="--darkreader-inline-fill: var(--darkreader-text-000000, #e8e6e3);" width="35.86" x="405.8" y="222.81"/>
      <rect fill="black" height="17.28" id="svg_11" rx="2" style="--darkreader-inline-fill: var(--darkreader-text-000000, #e8e6e3);" width="17.19" x="455.83" y="173.78"/>
      <rect fill="black" height="19.32" id="svg_12" rx="2" style="--darkreader-inline-fill: var(--darkreader-text-000000, #e8e6e3);" width="68.61" x="389.85" y="269.74"/>
      <rect fill="black" height="19.32" id="svg_13" rx="2" style="--darkreader-inline-fill: var(--darkreader-text-000000, #e8e6e3);" width="70.46" x="388.87" y="283.74"/>
      <rect fill="black" height="19.32" id="svg_14" rx="2" style="--darkreader-inline-fill: var(--darkreader-text-000000, #e8e6e3);" width="66.99" x="390.89" y="318.34"/>
      <rect fill="black" height="22.39" id="svg_15" rx="2" style="--darkreader-inline-fill: var(--darkreader-text-000000, #e8e6e3);" width="51.62" x="512.77" y="204.81"/>
      <rect fill="black" height="22.39" id="svg_16" rx="2" style="--darkreader-inline-fill: var(--darkreader-text-000000, #e8e6e3);" width="41.42" x="517.5" y="222.81"/>
      <rect fill="black" height="17.28" id="svg_17" rx="2" style="--darkreader-inline-fill: var(--darkreader-text-000000, #e8e6e3);" width="17.19" x="569.83" y="173.78"/>
      <rect fill="black" height="19.32" id="svg_18" rx="2" style="--darkreader-inline-fill: var(--darkreader-text-000000, #e8e6e3);" width="72.6" x="502.57" y="320.34"/>
      <rect fill="black" height="19.32" id="svg_19" rx="2" style="--darkreader-inline-fill: var(--darkreader-text-000000, #e8e6e3);" width="82.25" x="496.51" y="343.74"/>
      <rect fill="black" height="19.32" id="svg_20" rx="2" style="--darkreader-inline-fill: var(--darkreader-text-000000, #e8e6e3);" width="81" x="496.99" y="357.74"/>
      <rect fill="black" height="19.32" id="svg_21" rx="2" style="--darkreader-inline-fill: var(--darkreader-text-000000, #e8e6e3);" width="57.52" x="691.38" y="341.74"/>
      <rect fill="black" height="19.32" id="svg_22" rx="2" style="--darkreader-inline-fill: var(--darkreader-text-000000, #e8e6e3);" width="41.55" x="862.73" y="309.74"/>
      <rect fill="black" height="19.32" id="svg_23" rx="2" style="--darkreader-inline-fill: var(--darkreader-text-000000, #e8e6e3);" width="113.54" x="42.98" y="423.74"/>
      <rect fill="black" height="19.32" id="svg_24" rx="2" style="--darkreader-inline-fill: var(--darkreader-text-000000, #e8e6e3);" width="78.73" x="199" y="423.74"/>
      <rect fill="black" height="19.32" id="svg_25" rx="2" style="--darkreader-inline-fill: var(--darkreader-text-000000, #e8e6e3);" width="136.75" x="314" y="423.74"/>
      <rect fill="black" height="19.32" id="svg_26" rx="2" style="--darkreader-inline-fill: var(--darkreader-text-000000, #e8e6e3);" width="87.11" x="484" y="423.74"/>
      <rect fill="black" height="19.32" id="svg_27" rx="2" style="--darkreader-inline-fill: var(--darkreader-text-000000, #e8e6e3);" width="117.57" x="602.98" y="423.74"/>
      <rect fill="black" height="19.32" id="svg_28" rx="2" style="--darkreader-inline-fill: var(--darkreader-text-000000, #e8e6e3);" width="119.06" x="786" y="423.74"/>
    </mask>
  </defs>
  <g class="layer">
    <title>Layer 1</title>
    <rect fill="rgb(76, 155, 232)" height="150" id="svg_29" opacity="0.85" rx="2" stroke-width="1px" style="--darkreader-inline-fill: var(--darkreader-background-4c9be8, #145799); --darkreader-inline-stroke: none;" transform="matrix(1 0 0 1 -17 11)" width="34" x="30" y="150"/>
    <polygon fill="rgb(107, 179, 240)" id="svg_30" opacity="0.9" points="30,150 64,150 72,142 38,142" stroke-width="1px" style="--darkreader-inline-fill: var(--darkreader-background-6bb3f0, #0e4f87); --darkreader-inline-stroke: none;" transform="matrix(1 0 0 1 -17 11)"/>
    <polygon fill="rgb(42, 111, 168)" id="svg_31" opacity="0.9" points="64,150 72,142 72,300 64,308" stroke-width="1px" style="--darkreader-inline-fill: var(--darkreader-background-2a6fa8, #225986); --darkreader-inline-stroke: none;" transform="matrix(1 0 0 1 -17 11)"/>
    <text dominant-baseline="auto" fill="rgb(194, 192, 182)" font-family="&quot;Anthropic Sans&quot;, -apple-system, BlinkMacSystemFont, &quot;Segoe UI&quot;, sans-serif" font-size="12px" font-weight="400" id="svg_32" stroke-width="1px" style="--darkreader-inline-fill: var(--darkreader-text-c2c0b6, #beb8b0); --darkreader-inline-stroke: none; white-space: pre;" text-anchor="middle" transform="matrix(1 0 0 1 -17 11)" x="52" y="324">input</text>
    <rect fill="rgb(29, 158, 117)" height="114" id="svg_33" opacity="0.85" rx="2" stroke-width="1px" style="--darkreader-inline-fill: var(--darkreader-background-1d9e75, #177e5e); --darkreader-inline-stroke: none;" transform="matrix(1 0 0 1 -17 11)" width="18" x="78" y="168"/>
    <polygon fill="rgb(61, 184, 138)" id="svg_34" opacity="0.9" points="78,168 96,168 104,160 86,160" stroke-width="1px" style="--darkreader-inline-fill: var(--darkreader-text-3db88a, #58c89e); --darkreader-inline-stroke: none;" transform="matrix(1 0 0 1 -17 11)"/>
    <polygon fill="rgb(13, 110, 81)" id="svg_35" opacity="0.85" points="96,168 104,160 104,282 96,290" stroke-width="1px" style="--darkreader-inline-fill: var(--darkreader-background-0d6e51, #0a5841); --darkreader-inline-stroke: none;" transform="matrix(1 0 0 1 -17 11)"/>
    <text dominant-baseline="auto" fill="rgb(194, 192, 182)" font-family="&quot;Anthropic Sans&quot;, -apple-system, BlinkMacSystemFont, &quot;Segoe UI&quot;, sans-serif" font-size="12px" font-weight="400" id="svg_36" stroke-width="1px" style="--darkreader-inline-fill: var(--darkreader-text-c2c0b6, #beb8b0); --darkreader-inline-stroke: none; white-space: pre;" text-anchor="middle" transform="matrix(1 0 0 1 -17 11)" x="91" y="308">radial</text>
    <text dominant-baseline="auto" fill="rgb(194, 192, 182)" font-family="&quot;Anthropic Sans&quot;, -apple-system, BlinkMacSystemFont, &quot;Segoe UI&quot;, sans-serif" font-size="12px" font-weight="400" id="svg_37" stroke-width="1px" style="--darkreader-inline-fill: var(--darkreader-text-c2c0b6, #beb8b0); --darkreader-inline-stroke: none; white-space: pre;" text-anchor="middle" transform="matrix(1 0 0 1 -17 11)" x="91" y="322">map</text>
    <circle cx="104" cy="160" fill="rgb(29, 158, 117)" id="svg_38" r="8" stroke-width="1px" style="--darkreader-inline-fill: var(--darkreader-text-1d9e75, #65e3bb); --darkreader-inline-stroke: none;" transform="matrix(1 0 0 1 -17 11)"/>
    <text dominant-baseline="auto" fill="rgb(225, 245, 238)" font-family="&quot;Anthropic Sans&quot;, -apple-system, BlinkMacSystemFont, &quot;Segoe UI&quot;, sans-serif" font-size="10px" font-weight="500" id="svg_39" stroke-width="1px" style="--darkreader-inline-fill: var(--darkreader-text-e1f5ee, #c4ebdd); --darkreader-inline-stroke: none; white-space: pre;" text-anchor="middle" transform="matrix(1 0 0 1 -17 11)" x="104" y="164">★</text>
    <line fill="none" id="svg_40" marker-end="url(#arrow)" stroke="rgb(156, 154, 146)" stroke-width="1.5px" style="--darkreader-inline-stroke: var(--darkreader-border-9c9a92, #4d5457);" transform="matrix(1 0 0 1 -17 11)" x1="114" x2="134" y1="224" y2="224"/>
    <rect fill="rgb(127, 119, 221)" height="172" id="svg_41" opacity="0.85" rx="2" stroke-width="1px" style="--darkreader-inline-fill: var(--darkreader-background-7f77dd, #261f7a); --darkreader-inline-stroke: none;" transform="matrix(1 0 0 1 -17 11)" width="26" x="140" y="138"/>
    <polygon fill="rgb(158, 152, 232)" id="svg_42" opacity="0.9" points="140,138 166,138 174,130 148,130" stroke-width="1px" style="--darkreader-inline-fill: var(--darkreader-background-9e98e8, #1d1767); --darkreader-inline-stroke: none;" transform="matrix(1 0 0 1 -17 11)"/>
    <polygon fill="rgb(74, 67, 168)" id="svg_43" opacity="0.9" points="166,138 174,130 174,310 166,318" stroke-width="1px" style="--darkreader-inline-fill: var(--darkreader-background-4a43a8, #3b3686); --darkreader-inline-stroke: none;" transform="matrix(1 0 0 1 -17 11)"/>
    <rect fill="rgb(127, 119, 221)" height="136" id="svg_44" opacity="0.85" rx="2" stroke-width="1px" style="--darkreader-inline-fill: var(--darkreader-background-7f77dd, #261f7a); --darkreader-inline-stroke: none;" transform="matrix(1 0 0 1 -17 11)" width="24" x="192" y="156"/>
    <polygon fill="rgb(158, 152, 232)" id="svg_45" opacity="0.9" points="192,156 216,156 224,148 200,148" stroke-width="1px" style="--darkreader-inline-fill: var(--darkreader-text-9e98e8, #8dabe6); --darkreader-inline-stroke: none;" transform="matrix(1 0 0 1 -17 11)"/>
    <polygon fill="rgb(74, 67, 168)" id="svg_46" opacity="0.9" points="216,156 224,148 224,292 216,300" stroke-width="1px" style="--darkreader-inline-fill: var(--darkreader-background-4a43a8, #3b3686); --darkreader-inline-stroke: none;" transform="matrix(1 0 0 1 -17 11)"/>
    <rect fill="rgb(127, 119, 221)" height="100" id="svg_47" opacity="0.85" rx="2" stroke-width="1px" style="--darkreader-inline-fill: var(--darkreader-background-7f77dd, #261f7a); --darkreader-inline-stroke: none;" transform="matrix(1 0 0 1 -17 11)" width="22" x="240" y="174"/>
    <polygon fill="rgb(158, 152, 232)" id="svg_48" opacity="0.9" points="240,174 262,174 270,166 248,166" stroke-width="1px" style="--darkreader-inline-fill: var(--darkreader-text-9e98e8, #8dabe6); --darkreader-inline-stroke: none;" transform="matrix(1 0 0 1 -17 11)"/>
    <polygon fill="rgb(74, 67, 168)" id="svg_49" opacity="0.9" points="262,174 270,166 270,274 262,282" stroke-width="1px" style="--darkreader-inline-fill: var(--darkreader-background-4a43a8, #3b3686); --darkreader-inline-stroke: none;" transform="matrix(1 0 0 1 -17 11)"/>
    <rect fill="rgb(127, 119, 221)" height="68" id="svg_50" opacity="0.85" rx="2" stroke-width="1px" style="--darkreader-inline-fill: var(--darkreader-background-7f77dd, #261f7a); --darkreader-inline-stroke: none;" transform="matrix(1 0 0 1 -17 11)" width="20" x="286" y="190"/>
    <polygon fill="rgb(158, 152, 232)" id="svg_51" opacity="0.9" points="286,190 306,190 314,182 294,182" stroke-width="1px" style="--darkreader-inline-fill: var(--darkreader-text-9e98e8, #8dabe6); --darkreader-inline-stroke: none;" transform="matrix(1 0 0 1 -17 11)"/>
    <polygon fill="rgb(74, 67, 168)" id="svg_52" opacity="0.9" points="306,190 314,182 314,258 306,266" stroke-width="1px" style="--darkreader-inline-fill: var(--darkreader-background-4a43a8, #3b3686); --darkreader-inline-stroke: none;" transform="matrix(1 0 0 1 -17 11)"/>
    <rect fill="rgb(127, 119, 221)" height="46" id="svg_53" opacity="0.85" rx="2" stroke-width="1px" style="--darkreader-inline-fill: var(--darkreader-background-7f77dd, #261f7a); --darkreader-inline-stroke: none;" transform="matrix(1 0 0 1 -17 11)" width="18" x="330" y="202"/>
    <polygon fill="rgb(158, 152, 232)" id="svg_54" opacity="0.9" points="330,202 348,202 356,194 338,194" stroke-width="1px" style="--darkreader-inline-fill: var(--darkreader-text-9e98e8, #8dabe6); --darkreader-inline-stroke: none;" transform="matrix(1 0 0 1 -17 11)"/>
    <polygon fill="rgb(74, 67, 168)" id="svg_55" opacity="0.9" points="348,202 356,194 356,248 348,256" stroke-width="1px" style="--darkreader-inline-fill: var(--darkreader-background-4a43a8, #3b3686); --darkreader-inline-stroke: none;" transform="matrix(1 0 0 1 -17 11)"/>
    <text dominant-baseline="auto" fill="rgb(194, 192, 182)" font-family="&quot;Anthropic Sans&quot;, -apple-system, BlinkMacSystemFont, &quot;Segoe UI&quot;, sans-serif" font-size="12px" font-weight="400" id="svg_56" stroke-width="1px" style="--darkreader-inline-fill: var(--darkreader-text-c2c0b6, #beb8b0); --darkreader-inline-stroke: none; white-space: pre;" text-anchor="middle" transform="matrix(1 0 0 1 -17 11)" x="248" y="356">encoder</text>
    <path d="M 136.02 137.543 C 136.02 103.848 356.006 87 795.98 87 C 795.98 123.956 795.98 146.239 795.98 153.847" fill="none" id="svg_57" marker-end="url(#arrow)" stroke="rgb(83, 74, 183)" stroke-dasharray="5px, 3px" stroke-width="1px" style="--darkreader-inline-stroke: var(--darkreader-text-534ab7, #5c7dbe);"/>
    <path d="M 187 158.922 C 187 118.974 373.681 99 747.045 99 C 747.045 135.423 747.045 159.51 747.045 171.259" fill="none" id="svg_58" marker-end="url(#arrow)" stroke="rgb(83, 74, 183)" stroke-dasharray="5px, 3px" stroke-width="1px" style="--darkreader-inline-stroke: var(--darkreader-text-534ab7, #5c7dbe);"/>
    <text dominant-baseline="auto" fill="rgb(194, 192, 182)" font-family="&quot;Anthropic Sans&quot;, -apple-system, BlinkMacSystemFont, &quot;Segoe UI&quot;, sans-serif" font-size="12px" font-weight="400" id="svg_59" stroke-width="1px" style="--darkreader-inline-fill: var(--darkreader-text-c2c0b6, #beb8b0); --darkreader-inline-stroke: none; white-space: pre;" text-anchor="middle" transform="matrix(1 0 0 1 -17 11)" x="430" y="72">skip connections ★</text>
    <line fill="none" id="svg_60" marker-end="url(#arrow)" stroke="rgb(156, 154, 146)" stroke-width="1.5px" style="--darkreader-inline-stroke: var(--darkreader-border-9c9a92, #4d5457);" transform="matrix(1 0 0 1 -17 11)" x1="364" x2="390" y1="224" y2="224"/>
    <rect fill="rgb(239, 159, 39)" height="64" id="svg_61" opacity="0.9" rx="4" stroke-width="1px" style="--darkreader-inline-fill: var(--darkreader-background-ef9f27, #b16f0d); --darkreader-inline-stroke: none;" transform="matrix(1 0 0 1 -17 11)" width="60" x="394" y="192"/>
    <polygon fill="rgb(245, 184, 74)" id="svg_62" opacity="0.9" points="394,192 454,192 464,182 404,182" stroke-width="1px" style="--darkreader-inline-fill: var(--darkreader-background-f5b84a, #9d6809); --darkreader-inline-stroke: none;" transform="matrix(1 0 0 1 -17 11)"/>
    <polygon fill="rgb(168, 104, 0)" id="svg_63" opacity="0.85" points="437,203 447,193 447,267 437,277" stroke-width="1px" style="--darkreader-inline-fill: var(--darkreader-background-a86800, #865300); --darkreader-inline-stroke: none;"/>
    <text dominant-baseline="central" fill="rgb(250, 249, 245)" font-family="&quot;Anthropic Sans&quot;, -apple-system, BlinkMacSystemFont, &quot;Segoe UI&quot;, sans-serif" font-size="14px" font-weight="500" id="svg_64" stroke-width="1px" style="--darkreader-inline-fill: var(--darkreader-text-faf9f5, #eae6d6); --darkreader-inline-stroke: none; white-space: pre;" text-anchor="middle" transform="matrix(1 0 0 1 -17 11)" x="424" y="216">self-attn</text>
    <text dominant-baseline="central" fill="rgb(250, 249, 245)" font-family="&quot;Anthropic Sans&quot;, -apple-system, BlinkMacSystemFont, &quot;Segoe UI&quot;, sans-serif" font-size="14px" font-weight="500" id="svg_65" stroke-width="1px" style="--darkreader-inline-fill: var(--darkreader-text-faf9f5, #eae6d6); --darkreader-inline-stroke: none; white-space: pre;" text-anchor="middle" transform="matrix(1 0 0 1 -17 11)" x="424" y="234">4×4</text>
    <circle cx="464" cy="182" fill="rgb(239, 159, 39)" id="svg_66" r="8" stroke-width="1px" style="--darkreader-inline-fill: var(--darkreader-text-ef9f27, #f0a738); --darkreader-inline-stroke: none;" transform="matrix(1 0 0 1 -17 11)"/>
    <text dominant-baseline="auto" fill="rgb(65, 36, 2)" font-family="&quot;Anthropic Sans&quot;, -apple-system, BlinkMacSystemFont, &quot;Segoe UI&quot;, sans-serif" font-size="10px" font-weight="500" id="svg_67" stroke-width="1px" style="--darkreader-inline-fill: var(--darkreader-text-412402, #d3cfc9); --darkreader-inline-stroke: none; white-space: pre;" text-anchor="middle" transform="matrix(1 0 0 1 -17 11)" x="464" y="186">★</text>
    <text dominant-baseline="auto" fill="rgb(194, 192, 182)" font-family="&quot;Anthropic Sans&quot;, -apple-system, BlinkMacSystemFont, &quot;Segoe UI&quot;, sans-serif" font-size="12px" font-weight="400" id="svg_68" stroke-width="1px" style="--darkreader-inline-fill: var(--darkreader-text-c2c0b6, #beb8b0); --darkreader-inline-stroke: none; white-space: pre;" text-anchor="middle" transform="matrix(1 0 0 1 -17 11)" x="424" y="284">global ring</text>
    <g fill="rgb(0, 0, 0)" font-family="&quot;Anthropic Sans&quot;, -apple-system, BlinkMacSystemFont, &quot;Segoe UI&quot;, sans-serif" font-size="16px" font-weight="400" id="svg_71" stroke-width="1px" style="--darkreader-inline-fill: var(--darkreader-background-000000, #000000); --darkreader-inline-stroke: none;" text-anchor="start" transform="matrix(1 0 0 1 -17 11)">
      <rect fill="rgb(60, 52, 137)" height="30" id="svg_72" rx="4" stroke="rgb(175, 169, 236)" stroke-width="0.5px" style="--darkreader-inline-fill: var(--darkreader-background-3c3489, #302a6e); --darkreader-inline-stroke: var(--darkreader-text-afa9ec, #a099e8);" width="60" x="394" y="312"/>
      <text dominant-baseline="central" fill="rgb(175, 169, 236)" font-family="&quot;Anthropic Sans&quot;, -apple-system, BlinkMacSystemFont, &quot;Segoe UI&quot;, sans-serif" font-size="12px" font-weight="400" id="svg_73" stroke-width="1px" style="--darkreader-inline-fill: var(--darkreader-text-afa9ec, #a099e8); --darkreader-inline-stroke: none; white-space: pre;" text-anchor="middle" x="424" y="328">μ · 128-dim</text>
    </g>
    <line fill="none" id="svg_74" marker-end="url(#arrow)" stroke="rgb(156, 154, 146)" stroke-width="1.5px" style="--darkreader-inline-stroke: var(--darkreader-border-9c9a92, #4d5457);" transform="matrix(1 0 0 1 -17 11)" x1="464" x2="502" y1="220" y2="220"/>
    <rect fill="rgb(216, 90, 48)" height="64" id="svg_75" opacity="0.9" rx="4" stroke-width="1px" style="--darkreader-inline-fill: var(--darkreader-background-d85a30, #a7411f); --darkreader-inline-stroke: none;" transform="matrix(1 0 0 1 -17 11)" width="64" x="506" y="192"/>
    <polygon fill="rgb(232, 122, 85)" id="svg_76" opacity="0.9" points="506,192 570,192 578,182 514,182" stroke-width="1px" style="--darkreader-inline-fill: var(--darkreader-background-e87a55, #933414); --darkreader-inline-stroke: none;" transform="matrix(1 0 0 1 -17 11)"/>
    <polygon fill="rgb(122, 42, 16)" id="svg_77" opacity="0.85" points="570,192 578,182 578,256 570,266" stroke-width="1px" style="--darkreader-inline-fill: var(--darkreader-background-7a2a10, #62220d); --darkreader-inline-stroke: none;" transform="matrix(1 0 0 1 -17 11)"/>
    <text dominant-baseline="central" fill="rgb(250, 249, 245)" font-family="&quot;Anthropic Sans&quot;, -apple-system, BlinkMacSystemFont, &quot;Segoe UI&quot;, sans-serif" font-size="14px" font-weight="500" id="svg_78" stroke-width="1px" style="--darkreader-inline-fill: var(--darkreader-text-faf9f5, #eae6d6); --darkreader-inline-stroke: none; white-space: pre;" text-anchor="middle" transform="matrix(1 0 0 1 -17 11)" x="538" y="216">planet</text>
    <text dominant-baseline="central" fill="rgb(250, 249, 245)" font-family="&quot;Anthropic Sans&quot;, -apple-system, BlinkMacSystemFont, &quot;Segoe UI&quot;, sans-serif" font-size="14px" font-weight="500" id="svg_79" stroke-width="1px" style="--darkreader-inline-fill: var(--darkreader-text-faf9f5, #eae6d6); --darkreader-inline-stroke: none; white-space: pre;" text-anchor="middle" transform="matrix(1 0 0 1 -17 11)" x="538" y="234">head</text>
    <circle cx="578" cy="182" fill="rgb(216, 90, 48)" id="svg_80" r="8" stroke-width="1px" style="--darkreader-inline-fill: var(--darkreader-text-d85a30, #dc6943); --darkreader-inline-stroke: none;" transform="matrix(1 0 0 1 -17 11)"/>
    <text dominant-baseline="auto" fill="rgb(250, 236, 231)" font-family="&quot;Anthropic Sans&quot;, -apple-system, BlinkMacSystemFont, &quot;Segoe UI&quot;, sans-serif" font-size="10px" font-weight="500" id="svg_81" stroke-width="1px" style="--darkreader-inline-fill: var(--darkreader-text-faece7, #f3d0c4); --darkreader-inline-stroke: none; white-space: pre;" text-anchor="middle" transform="matrix(1 0 0 1 -17 11)" x="578" y="186">★</text>
    <line fill="none" id="svg_82" marker-end="url(#arrow)" stroke="rgb(156, 154, 146)" stroke-width="1.5px" style="--darkreader-inline-stroke: var(--darkreader-border-9c9a92, #4d5457);" transform="matrix(1 0 0 1 -17 11)" x1="538" x2="538" y1="266" y2="312"/>
    <g fill="rgb(0, 0, 0)" font-family="&quot;Anthropic Sans&quot;, -apple-system, BlinkMacSystemFont, &quot;Segoe UI&quot;, sans-serif" font-size="16px" font-weight="400" id="svg_83" stroke-width="1px" style="--darkreader-inline-fill: var(--darkreader-background-000000, #000000); --darkreader-inline-stroke: none;" text-anchor="start" transform="matrix(1 0 0 1 -17 11)">
      <rect fill="rgb(113, 43, 19)" height="30" id="svg_84" rx="4" stroke="rgb(240, 153, 123)" stroke-width="0.5px" style="--darkreader-inline-fill: var(--darkreader-background-712b13, #5a220f); --darkreader-inline-stroke: var(--darkreader-text-f0997b, #ef9475);" width="68" x="504" y="314"/>
      <text dominant-baseline="central" fill="rgb(240, 153, 123)" font-family="&quot;Anthropic Sans&quot;, -apple-system, BlinkMacSystemFont, &quot;Segoe UI&quot;, sans-serif" font-size="12px" font-weight="400" id="svg_85" stroke-width="1px" style="--darkreader-inline-fill: var(--darkreader-text-f0997b, #ef9475); --darkreader-inline-stroke: none; white-space: pre;" text-anchor="middle" x="538" y="330">planet map</text>
    </g>
    <text dominant-baseline="auto" fill="rgb(194, 192, 182)" font-family="&quot;Anthropic Sans&quot;, -apple-system, BlinkMacSystemFont, &quot;Segoe UI&quot;, sans-serif" font-size="12px" font-weight="400" id="svg_86" stroke-width="1px" style="--darkreader-inline-fill: var(--darkreader-text-c2c0b6, #beb8b0); --darkreader-inline-stroke: none; white-space: pre;" text-anchor="middle" transform="matrix(1 0 0 1 -17 11)" x="538" y="358">joint training</text>
    <text dominant-baseline="auto" fill="rgb(194, 192, 182)" font-family="&quot;Anthropic Sans&quot;, -apple-system, BlinkMacSystemFont, &quot;Segoe UI&quot;, sans-serif" font-size="12px" font-weight="400" id="svg_87" stroke-width="1px" style="--darkreader-inline-fill: var(--darkreader-text-c2c0b6, #beb8b0); --darkreader-inline-stroke: none; white-space: pre;" text-anchor="middle" transform="matrix(1 0 0 1 -17 11)" x="538" y="372">from epoch 1</text>
    <rect fill="rgb(127, 119, 221)" height="46" id="svg_89" opacity="0.7" rx="2" stroke-width="1px" style="--darkreader-inline-fill: var(--darkreader-background-7f77dd, #261f7a); --darkreader-inline-stroke: none;" transform="matrix(1 0 0 1 -17 11)" width="18" x="622" y="202"/>
    <polygon fill="rgb(158, 152, 232)" id="svg_90" opacity="0.8" points="622,202 640,202 648,194 630,194" stroke-width="1px" style="--darkreader-inline-fill: var(--darkreader-text-9e98e8, #8dabe6); --darkreader-inline-stroke: none;" transform="matrix(1 0 0 1 -17 11)"/>
    <polygon fill="rgb(74, 67, 168)" id="svg_91" opacity="0.8" points="640,202 648,194 648,248 640,256" stroke-width="1px" style="--darkreader-inline-fill: var(--darkreader-background-4a43a8, #3b3686); --darkreader-inline-stroke: none;" transform="matrix(1 0 0 1 -17 11)"/>
    <rect fill="rgb(127, 119, 221)" height="68" id="svg_92" opacity="0.7" rx="2" stroke-width="1px" style="--darkreader-inline-fill: var(--darkreader-background-7f77dd, #261f7a); --darkreader-inline-stroke: none;" transform="matrix(1 0 0 1 -17 11)" width="20" x="660" y="190"/>
    <polygon fill="rgb(158, 152, 232)" id="svg_93" opacity="0.8" points="660,190 680,190 688,182 668,182" stroke-width="1px" style="--darkreader-inline-fill: var(--darkreader-text-9e98e8, #8dabe6); --darkreader-inline-stroke: none;" transform="matrix(1 0 0 1 -17 11)"/>
    <polygon fill="rgb(74, 67, 168)" id="svg_94" opacity="0.8" points="680,190 688,182 688,258 680,266" stroke-width="1px" style="--darkreader-inline-fill: var(--darkreader-background-4a43a8, #3b3686); --darkreader-inline-stroke: none;" transform="matrix(1 0 0 1 -17 11)"/>
    <rect fill="rgb(127, 119, 221)" height="100" id="svg_95" opacity="0.7" rx="2" stroke-width="1px" style="--darkreader-inline-fill: var(--darkreader-background-7f77dd, #261f7a); --darkreader-inline-stroke: none;" transform="matrix(1 0 0 1 -17 11)" width="22" x="702" y="174"/>
    <polygon fill="rgb(158, 152, 232)" id="svg_96" opacity="0.8" points="702,174 724,174 732,166 710,166" stroke-width="1px" style="--darkreader-inline-fill: var(--darkreader-text-9e98e8, #8dabe6); --darkreader-inline-stroke: none;" transform="matrix(1 0 0 1 -17 11)"/>
    <polygon fill="rgb(74, 67, 168)" id="svg_97" opacity="0.8" points="724,174 732,166 732,274 724,282" stroke-width="1px" style="--darkreader-inline-fill: var(--darkreader-background-4a43a8, #3b3686); --darkreader-inline-stroke: none;" transform="matrix(1 0 0 1 -17 11)"/>
    <rect fill="rgb(127, 119, 221)" height="136" id="svg_98" opacity="0.7" rx="2" stroke-width="1px" style="--darkreader-inline-fill: var(--darkreader-background-7f77dd, #261f7a); --darkreader-inline-stroke: none;" transform="matrix(1 0 0 1 -17 11)" width="24" x="748" y="156"/>
    <polygon fill="rgb(158, 152, 232)" id="svg_99" opacity="0.8" points="748,156 772,156 780,148 756,148" stroke-width="1px" style="--darkreader-inline-fill: var(--darkreader-text-9e98e8, #8dabe6); --darkreader-inline-stroke: none;" transform="matrix(1 0 0 1 -17 11)"/>
    <polygon fill="rgb(74, 67, 168)" id="svg_100" opacity="0.8" points="772,156 780,148 780,292 772,300" stroke-width="1px" style="--darkreader-inline-fill: var(--darkreader-background-4a43a8, #3b3686); --darkreader-inline-stroke: none;" transform="matrix(1 0 0 1 -17 11)"/>
    <rect fill="rgb(127, 119, 221)" height="172" id="svg_101" opacity="0.7" rx="2" stroke-width="1px" style="--darkreader-inline-fill: var(--darkreader-background-7f77dd, #261f7a); --darkreader-inline-stroke: none;" transform="matrix(1 0 0 1 -17 11)" width="26" x="798" y="138"/>
    <polygon fill="rgb(158, 152, 232)" id="svg_102" opacity="0.8" points="798,138 824,138 832,130 806,130" stroke-width="1px" style="--darkreader-inline-fill: var(--darkreader-background-9e98e8, #1d1767); --darkreader-inline-stroke: none;" transform="matrix(1 0 0 1 -17 11)"/>
    <polygon fill="rgb(74, 67, 168)" id="svg_103" opacity="0.8" points="824,138 832,130 832,310 824,318" stroke-width="1px" style="--darkreader-inline-fill: var(--darkreader-background-4a43a8, #3b3686); --darkreader-inline-stroke: none;" transform="matrix(1 0 0 1 -17 11)"/>
    <text dominant-baseline="auto" fill="rgb(194, 192, 182)" font-family="&quot;Anthropic Sans&quot;, -apple-system, BlinkMacSystemFont, &quot;Segoe UI&quot;, sans-serif" font-size="12px" font-weight="400" id="svg_104" stroke-width="1px" style="--darkreader-inline-fill: var(--darkreader-text-c2c0b6, #beb8b0); --darkreader-inline-stroke: none; white-space: pre;" text-anchor="middle" transform="matrix(1 0 0 1 -17 11)" x="720" y="356">decoder</text>
    <line fill="none" id="svg_105" marker-end="url(#arrow)" stroke="rgb(156, 154, 146)" stroke-width="1.5px" style="--darkreader-inline-stroke: var(--darkreader-border-9c9a92, #4d5457);" transform="matrix(1 0 0 1 -17 11)" x1="840" x2="858" y1="224" y2="224"/>
    <rect fill="rgb(76, 155, 232)" height="150" id="svg_106" opacity="0.75" rx="2" stroke-width="1px" style="--darkreader-inline-fill: var(--darkreader-background-4c9be8, #145799); --darkreader-inline-stroke: none;" transform="matrix(1 0 0 1 -17 11)" width="34" x="862" y="150"/>
    <polygon fill="rgb(107, 179, 240)" id="svg_107" opacity="0.85" points="862,150 896,150 904,142 870,142" stroke-width="1px" style="--darkreader-inline-fill: var(--darkreader-background-6bb3f0, #0e4f87); --darkreader-inline-stroke: none;" transform="matrix(1 0 0 1 -17 11)"/>
    <polygon fill="rgb(42, 111, 168)" id="svg_108" opacity="0.85" points="896,150 904,142 904,300 896,308" stroke-width="1px" style="--darkreader-inline-fill: var(--darkreader-background-2a6fa8, #225986); --darkreader-inline-stroke: none;" transform="matrix(1 0 0 1 -17 10)"/>
    <text dominant-baseline="auto" fill="rgb(194, 192, 182)" font-family="&quot;Anthropic Sans&quot;, -apple-system, BlinkMacSystemFont, &quot;Segoe UI&quot;, sans-serif" font-size="12px" font-weight="400" id="svg_109" stroke-width="1px" style="--darkreader-inline-fill: var(--darkreader-text-c2c0b6, #beb8b0); --darkreader-inline-stroke: none; white-space: pre;" text-anchor="middle" transform="matrix(1 0 0 1 -17 11)" x="883" y="324">recon</text>
    <rect fill="rgb(127, 119, 221)" height="12" id="svg_110" rx="2" stroke-width="1px" style="--darkreader-inline-fill: var(--darkreader-text-7f77dd, #7799dd); --darkreader-inline-stroke: none;" transform="matrix(1 0 0 1 -17 11)" width="12" x="30" y="428"/>
    <text dominant-baseline="auto" fill="rgb(194, 192, 182)" font-family="&quot;Anthropic Sans&quot;, -apple-system, BlinkMacSystemFont, &quot;Segoe UI&quot;, sans-serif" font-size="12px" font-weight="400" id="svg_111" stroke-width="1px" style="--darkreader-inline-fill: var(--darkreader-text-c2c0b6, #beb8b0); --darkreader-inline-stroke: none; white-space: pre;" text-anchor="start" transform="matrix(1 0 0 1 -17 11)" x="48" y="438">encoder / decoder</text>
    <rect fill="rgb(29, 158, 117)" height="12" id="svg_112" rx="2" stroke-width="1px" style="--darkreader-inline-fill: var(--darkreader-text-1d9e75, #65e3bb); --darkreader-inline-stroke: none;" transform="matrix(1 0 0 1 -17 11)" width="12" x="185" y="428"/>
    <text dominant-baseline="auto" fill="rgb(194, 192, 182)" font-family="&quot;Anthropic Sans&quot;, -apple-system, BlinkMacSystemFont, &quot;Segoe UI&quot;, sans-serif" font-size="12px" font-weight="400" id="svg_113" stroke-width="1px" style="--darkreader-inline-fill: var(--darkreader-text-c2c0b6, #beb8b0); --darkreader-inline-stroke: none; white-space: pre;" text-anchor="start" transform="matrix(1 0 0 1 -17 11)" x="203" y="438">radial map ★</text>
    <rect fill="rgb(239, 159, 39)" height="12" id="svg_114" rx="2" stroke-width="1px" style="--darkreader-inline-fill: var(--darkreader-text-ef9f27, #f0a738); --darkreader-inline-stroke: none;" transform="matrix(1 0 0 1 -17 11)" width="12" x="300" y="428"/>
    <text dominant-baseline="auto" fill="rgb(194, 192, 182)" font-family="&quot;Anthropic Sans&quot;, -apple-system, BlinkMacSystemFont, &quot;Segoe UI&quot;, sans-serif" font-size="12px" font-weight="400" id="svg_115" stroke-width="1px" style="--darkreader-inline-fill: var(--darkreader-text-c2c0b6, #beb8b0); --darkreader-inline-stroke: none; white-space: pre;" text-anchor="start" transform="matrix(1 0 0 1 -17 11)" x="318" y="438">bottleneck attention ★</text>
    <rect fill="rgb(216, 90, 48)" height="12" id="svg_116" rx="2" stroke-width="1px" style="--darkreader-inline-fill: var(--darkreader-text-d85a30, #dc6943); --darkreader-inline-stroke: none;" transform="matrix(1 0 0 1 -17 11)" width="12" x="470" y="428"/>
    <text dominant-baseline="auto" fill="rgb(194, 192, 182)" font-family="&quot;Anthropic Sans&quot;, -apple-system, BlinkMacSystemFont, &quot;Segoe UI&quot;, sans-serif" font-size="12px" font-weight="400" id="svg_117" stroke-width="1px" style="--darkreader-inline-fill: var(--darkreader-text-c2c0b6, #beb8b0); --darkreader-inline-stroke: none; white-space: pre;" text-anchor="start" transform="matrix(1 0 0 1 -17 11)" x="488" y="438">planet head ★</text>
    <rect fill="rgb(83, 74, 183)" height="12" id="svg_118" rx="2" stroke-width="1px" style="--darkreader-inline-fill: var(--darkreader-text-534ab7, #5c7dbe); --darkreader-inline-stroke: none;" transform="matrix(1 0 0 1 -17 11)" width="12" x="590" y="428"/>
    <text dominant-baseline="auto" fill="rgb(194, 192, 182)" font-family="&quot;Anthropic Sans&quot;, -apple-system, BlinkMacSystemFont, &quot;Segoe UI&quot;, sans-serif" font-size="12px" font-weight="400" id="svg_119" stroke-width="1px" style="--darkreader-inline-fill: var(--darkreader-text-c2c0b6, #beb8b0); --darkreader-inline-stroke: none; white-space: pre;" text-anchor="start" transform="matrix(1 0 0 1 -17 11)" x="608" y="438">skip connections ★</text>
    <text dominant-baseline="auto" fill="rgb(194, 192, 182)" font-family="&quot;Anthropic Sans&quot;, -apple-system, BlinkMacSystemFont, &quot;Segoe UI&quot;, sans-serif" font-size="12px" font-weight="400" id="svg_120" stroke-width="1px" style="--darkreader-inline-fill: var(--darkreader-text-c2c0b6, #beb8b0); --darkreader-inline-stroke: none; white-space: pre;" text-anchor="start" transform="matrix(1 0 0 1 -22 15)" x="790" y="438">★ novel component</text>
    <line fill="none" id="svg_70" marker-end="url(#arrow)" mask="url(#imagine-text-gaps-9i9r26)" stroke="rgb(156, 154, 146)" stroke-width="1.5px" style="--darkreader-inline-stroke: var(--darkreader-border-9c9a92, #4d5457);" x1="407" x2="407" y1="266.718" y2="321"/>
    <text dominant-baseline="auto" fill="rgb(194, 192, 182)" font-family="&quot;Anthropic Sans&quot;, -apple-system, BlinkMacSystemFont, &quot;Segoe UI&quot;, sans-serif" font-size="12px" font-weight="400" id="svg_69" stroke-width="1px" style="--darkreader-inline-fill: var(--darkreader-text-c2c0b6, #beb8b0); --darkreader-inline-stroke: none; white-space: pre;" text-anchor="middle" transform="matrix(1 0 0 1 -17 11)" x="424" y="298">coherence</text>
    <path d="M 238.695 176.117 C 238.695 132.578 392.185 110.81 699.166 110.81 C 699.166 150.506 699.166 176.757 699.166 189.563" fill="none" id="path-1" marker-end="url(#arrow)" stroke="rgb(83, 74, 183)" stroke-dasharray="5px, 3px" stroke-width="1px" style="--darkreader-inline-stroke: var(--darkreader-text-534ab7, #5c7dbe); stroke-width: 0.988;"/>
    <path d="M 285.236 187.97 C 285.236 149.517 409.143 130.29 656.956 130.29 C 656.956 165.35 656.956 188.534 656.956 199.844" fill="none" id="path-2" marker-end="url(#arrow)" stroke="rgb(83, 74, 183)" stroke-dasharray="5px, 3px" stroke-width="1px" style="--darkreader-inline-stroke: var(--darkreader-text-534ab7, #5c7dbe); stroke-width: 0.988;"/>
    <path d="M 410.785 212.717 C 410.785 179.052 478.411 162.219 613.662 162.219 C 613.662 192.914 613.662 213.213 613.662 223.114" fill="none" id="path-3" marker-end="url(#arrow)" stroke-width="1px" style="--darkreader-inline-stroke: var(--darkreader-text-534ab7, #5c7dbe); stroke-width: 0.988; stroke: rgb(127, 126, 129);"/>
  </g>
</svg>